# xmcd CD database file
#
# Track frame offsets:
#	150
#	10406
#	26714
#	42238
#	55541
#	68861
#	83645
#	95061
#	136533
#	158234
#	198598
#	210976
#
# Disc length: 3509 seconds
#
# Revision: 0
# Processed by: cddbd v1.5.2PL0 Copyright (c) Steve Scherf et al.
# Submitted via: CDex 1.70beta2
#
DISCID=970db30c
DTITLE=Varios Artistas - simply JAZZ and vocals cd 1
DYEAR=2005
DGENRE=Jazz
TTITLE0=Louis Armstrong - What a wondwrful world
TTITLE1=Cannonball Adderley - You'd be so nice to come home to
TTITLE2=Joe Williams - It don't mean a thing
TTITLE3=Miles Davis - A night in Tunisia
TTITLE4=F. Sinatra and H. James - All or nothing at all
TTITLE5=Sonny Rollins - Everytime we say goodbye
TTITLE6=Dinah Washington - Whats a difference a day makes
TTITLE7=Freddie Hubbard - If I were a bell
TTITLE8=Carmen McRae - Everithing happens to me
TTITLE9=Art Blakey - My Funny Valentine
TTITLE10=Ella Fitzgerald and The ink spots - I'm beginning to see the light
TTITLE11=Thelonious Monk - Well you needn't
EXTD=YEAR: 2005
EXTT0=
EXTT1=
EXTT2=
EXTT3=
EXTT4=
EXTT5=
EXTT6=
EXTT7=
EXTT8=
EXTT9=
EXTT10=
EXTT11=
PLAYORDER=
